<svg width="138" height="24" viewBox="0 0 138 24" fill="none" xmlns="http://www.w3.org/2000/svg">
<path fill-rule="evenodd" clip-rule="evenodd" d="M6.75 12C6.75 8.36559 3.89581 5.41934 0.375 5.41934C0.249114 5.41934 0.12408 5.4231 -8.11697e-07 5.43053L-1.04907e-06 0L48 -2.09815e-06L48 5.43053C44.6537 5.6309 42 8.49554 42 12C42 15.5044 44.6537 18.3691 48 18.5694L48 24L13.5 24L13.5 22.7312C13.5 22.5174 13.3321 22.3441 13.125 22.3441C12.9179 22.3441 12.75 22.5174 12.75 22.7312L12.75 24L0 24L-2.37378e-07 18.5694C0.124081 18.5769 0.249114 18.5806 0.375 18.5806C3.89582 18.5806 6.75 15.6344 6.75 12ZM12.75 21.1398C12.75 21.3536 12.9179 21.5269 13.125 21.5269C13.3321 21.5269 13.5 21.3536 13.5 21.1398L13.5 19.5484C13.5 19.3346 13.3321 19.1613 13.125 19.1613C12.9179 19.1613 12.75 19.3346 12.75 19.5484L12.75 21.1398ZM12.75 17.957C12.75 18.1708 12.9179 18.3441 13.125 18.3441C13.3321 18.3441 13.5 18.1708 13.5 17.957L13.5 16.3656C13.5 16.1518 13.3321 15.9785 13.125 15.9785C12.9179 15.9785 12.75 16.1518 12.75 16.3656L12.75 17.957ZM12.75 14.7742C12.75 14.988 12.9179 15.1613 13.125 15.1613C13.3321 15.1613 13.5 14.988 13.5 14.7742L13.5 13.1828C13.5 12.969 13.3321 12.7957 13.125 12.7957C12.9179 12.7957 12.75 12.969 12.75 13.1828L12.75 14.7742ZM12.75 11.5914C12.75 11.8052 12.9179 11.9785 13.125 11.9785C13.3321 11.9785 13.5 11.8052 13.5 11.5914L13.5 10C13.5 9.78621 13.3321 9.6129 13.125 9.6129C12.9179 9.6129 12.75 9.78621 12.75 10L12.75 11.5914ZM12.75 8.4086C12.75 8.62239 12.9179 8.7957 13.125 8.7957C13.3321 8.7957 13.5 8.62239 13.5 8.4086L13.5 6.8172C13.5 6.60341 13.3321 6.4301 13.125 6.4301C12.9179 6.4301 12.75 6.60341 12.75 6.8172L12.75 8.4086ZM12.75 5.2258C12.75 5.43959 12.9179 5.6129 13.125 5.6129C13.3321 5.6129 13.5 5.43959 13.5 5.2258L13.5 3.63441C13.5 3.42062 13.3321 3.24731 13.125 3.24731C12.9179 3.24731 12.75 3.42062 12.75 3.63441L12.75 5.2258ZM12.75 2.04301C12.75 2.2568 12.9179 2.4301 13.125 2.4301C13.3321 2.4301 13.5 2.2568 13.5 2.04301L13.5 0.45161C13.5 0.237823 13.3321 0.0645136 13.125 0.0645136C12.9179 0.0645136 12.75 0.237823 12.75 0.45161L12.75 2.04301Z" fill="black"/>
<rect x="19" y="6" width="0.999999" height="17" transform="rotate(-90 19 6)" fill="white"/>
<rect x="19" y="9" width="2" height="17" transform="rotate(-90 19 9)" fill="white"/>
<rect x="19" y="11" width="0.999999" height="17" transform="rotate(-90 19 11)" fill="white"/>
<rect x="29" y="19" width="6" height="7" transform="rotate(-90 29 19)" fill="white"/>
<rect x="19" y="19" width="6" height="7" transform="rotate(-90 19 19)" fill="white"/>
<path d="M60.032 14.149V9.949C60.032 9.165 60.018 8.115 59.99 6.799C58.002 6.799 56.693 6.827 56.063 6.883C56.021 6.715 56 6.463 56 6.127C56 5.749 56.07 5.497 56.21 5.371C56.364 5.231 56.602 5.154 56.924 5.14C57.274 5.126 58.093 5.119 59.381 5.119H61.859C64.211 5.119 65.632 5.098 66.122 5.056C66.164 5.224 66.185 5.469 66.185 5.791C66.185 6.169 66.108 6.428 65.954 6.568C65.814 6.694 65.583 6.764 65.261 6.778C64.869 6.792 63.896 6.799 62.342 6.799C62.272 8.311 62.237 9.55 62.237 10.516V14.737C62.237 16.599 62.37 17.971 62.636 18.853C62.244 18.993 61.81 19.063 61.334 19.063C60.816 19.063 60.459 18.972 60.263 18.79C60.081 18.608 59.99 18.3 59.99 17.866C59.99 17.642 59.997 17.089 60.011 16.207C60.025 15.325 60.032 14.639 60.032 14.149ZM68.6284 8.962C69.6364 8.962 70.1404 9.333 70.1404 10.075C70.1404 10.159 70.1194 10.446 70.0774 10.936C70.0354 11.412 69.9934 12.007 69.9514 12.721C69.9234 13.435 69.9094 14.114 69.9094 14.758C69.9094 16.634 70.0914 17.999 70.4554 18.853C70.1054 19.007 69.7064 19.084 69.2584 19.084C68.6424 19.084 68.2224 18.958 67.9984 18.706C67.7884 18.454 67.6834 18.027 67.6834 17.425C67.6834 17.201 67.6904 16.662 67.7044 15.808C67.7184 14.94 67.7254 14.275 67.7254 13.813C67.7254 11.783 67.6624 10.194 67.5364 9.046C67.8724 8.99 68.2364 8.962 68.6284 8.962ZM68.7334 8.08C68.3134 8.08 67.9564 7.94 67.6624 7.66C67.3684 7.38 67.2214 7.023 67.2214 6.589C67.2214 6.169 67.3754 5.819 67.6834 5.539C67.9914 5.245 68.3554 5.098 68.7754 5.098C69.1814 5.098 69.5314 5.245 69.8254 5.539C70.1194 5.819 70.2664 6.169 70.2664 6.589C70.2664 7.009 70.1124 7.366 69.8044 7.66C69.4964 7.94 69.1394 8.08 68.7334 8.08ZM77.3649 17.698C77.7429 17.698 78.1349 17.6 78.5409 17.404C78.9469 17.208 79.2479 16.928 79.4439 16.564C80.1299 16.928 80.4729 17.32 80.4729 17.74C80.4729 18.216 80.1439 18.58 79.4859 18.832C78.8279 19.084 78.0929 19.21 77.2809 19.21C76.6789 19.21 76.0839 19.112 75.4959 18.916C74.9219 18.706 74.3829 18.405 73.8789 18.013C73.3749 17.621 72.9689 17.089 72.6609 16.417C72.3669 15.745 72.2199 14.975 72.2199 14.107C72.2199 12.371 72.7239 11.055 73.7319 10.159C74.7399 9.263 75.8879 8.815 77.1759 8.815C77.9599 8.815 78.7019 9.004 79.4019 9.382C80.1159 9.746 80.4729 10.257 80.4729 10.915C80.4729 11.209 80.3259 11.447 80.0319 11.629C79.7379 11.811 79.3389 11.93 78.8349 11.986C78.7229 11.482 78.4709 11.09 78.0789 10.81C77.6869 10.53 77.2879 10.39 76.8819 10.39C76.2099 10.39 75.6499 10.712 75.2019 11.356C74.7539 12 74.5299 12.84 74.5299 13.876C74.5299 15.206 74.7889 16.179 75.3069 16.795C75.8389 17.397 76.5249 17.698 77.3649 17.698ZM86.7701 10.348C86.1261 10.348 85.3911 10.663 84.5651 11.293C84.5791 11.825 84.5861 12.98 84.5861 14.758C84.6001 16.536 84.6491 17.936 84.7331 18.958C84.3551 19.014 84.0051 19.042 83.6831 19.042C82.7731 19.042 82.3181 18.762 82.3181 18.202C82.3181 18.104 82.3251 17.761 82.3391 17.173C82.3671 16.585 82.3881 15.689 82.4021 14.485C82.4161 13.281 82.4231 11.888 82.4231 10.306C82.4231 7.002 82.3601 4.734 82.2341 3.502C82.6261 3.432 82.9901 3.397 83.3261 3.397C84.3201 3.397 84.8171 3.782 84.8171 4.552C84.8171 4.678 84.7961 4.979 84.7541 5.455C84.7261 5.917 84.6911 6.54 84.6491 7.324C84.6071 8.094 84.5861 8.913 84.5861 9.781C85.5101 9.137 86.4481 8.815 87.4001 8.815C88.3801 8.815 89.1221 9.081 89.6261 9.613C90.1441 10.131 90.4031 10.775 90.4031 11.545C90.4031 12.343 90.1371 13.064 89.6051 13.708C89.0871 14.352 88.3661 14.751 87.4421 14.905C87.9601 15.801 88.4641 16.494 88.9541 16.984C89.3601 17.376 89.7031 17.572 89.9831 17.572C90.2631 17.572 90.5361 17.53 90.8021 17.446C90.9561 17.796 91.0331 18.062 91.0331 18.244C91.0331 18.566 90.8581 18.811 90.5081 18.979C90.1721 19.133 89.7521 19.21 89.2481 19.21C88.6741 19.21 88.1281 18.916 87.6101 18.328C86.8681 17.474 86.1471 16.256 85.4471 14.674C85.2091 14.576 85.0901 14.387 85.0901 14.107C85.0901 13.925 85.1391 13.701 85.2371 13.435C85.5311 13.519 85.8461 13.561 86.1821 13.561C86.7981 13.561 87.2811 13.379 87.6311 13.015C87.9951 12.651 88.1771 12.231 88.1771 11.755C88.1771 11.363 88.0511 11.034 87.7991 10.768C87.5611 10.488 87.2181 10.348 86.7701 10.348ZM96.2025 14.863C95.8245 14.863 95.3135 14.849 94.6695 14.821C94.8095 15.815 95.1245 16.543 95.6145 17.005C96.1185 17.467 96.7345 17.698 97.4625 17.698C97.8405 17.698 98.2325 17.6 98.6385 17.404C99.0445 17.208 99.3455 16.928 99.5415 16.564C100.228 16.928 100.571 17.32 100.571 17.74C100.571 18.216 100.242 18.58 99.5835 18.832C98.9255 19.084 98.1905 19.21 97.3785 19.21C96.0625 19.21 94.8865 18.776 93.8505 17.908C92.8285 17.04 92.3175 15.787 92.3175 14.149C92.3175 12.427 92.8075 11.111 93.7875 10.201C94.7815 9.277 95.9505 8.815 97.2945 8.815C98.3725 8.815 99.2405 9.109 99.8985 9.697C100.571 10.285 100.907 10.985 100.907 11.797C100.907 12.455 100.781 13.001 100.529 13.435C100.291 13.855 99.9335 14.163 99.4575 14.359C98.9815 14.555 98.4985 14.688 98.0085 14.758C97.5185 14.828 96.9165 14.863 96.2025 14.863ZM97.1055 10.348C96.4475 10.348 95.8875 10.6 95.4255 11.104C94.9635 11.608 94.6905 12.406 94.6065 13.498C95.5025 13.498 96.1605 13.477 96.5805 13.435C97.9385 13.267 98.6175 12.735 98.6175 11.839C98.6175 11.433 98.4705 11.083 98.1765 10.789C97.8965 10.495 97.5395 10.348 97.1055 10.348ZM102.741 9.046C102.867 9.032 103.182 9.025 103.686 9.025C103.658 8.199 103.616 7.492 103.56 6.904C103.854 6.848 104.197 6.82 104.589 6.82C105.555 6.82 106.038 7.079 106.038 7.597C106.038 7.933 106.017 8.416 105.975 9.046C107.487 9.046 108.537 9.004 109.125 8.92C109.209 9.074 109.251 9.291 109.251 9.571C109.251 9.949 109.167 10.208 108.999 10.348C108.831 10.474 108.565 10.544 108.201 10.558C107.781 10.572 107.025 10.579 105.933 10.579C105.905 11.895 105.891 13.316 105.891 14.842C105.891 15.29 105.905 15.661 105.933 15.955C105.961 16.249 106.024 16.543 106.122 16.837C106.22 17.131 106.367 17.355 106.563 17.509C106.759 17.649 107.011 17.719 107.319 17.719C107.753 17.719 108.201 17.474 108.663 16.984C109.027 17.39 109.209 17.733 109.209 18.013C109.209 18.419 108.999 18.72 108.579 18.916C108.173 19.112 107.711 19.21 107.193 19.21C104.855 19.21 103.686 17.936 103.686 15.388C103.686 14.73 103.686 13.82 103.686 12.658C103.7 11.482 103.707 10.782 103.707 10.558C102.811 10.614 102.174 10.67 101.796 10.726C101.74 10.572 101.712 10.341 101.712 10.033C101.712 9.669 101.789 9.424 101.943 9.298C102.111 9.172 102.377 9.088 102.741 9.046ZM114.208 14.863C113.83 14.863 113.319 14.849 112.675 14.821C112.815 15.815 113.13 16.543 113.62 17.005C114.124 17.467 114.74 17.698 115.468 17.698C115.846 17.698 116.238 17.6 116.644 17.404C117.05 17.208 117.351 16.928 117.547 16.564C118.233 16.928 118.576 17.32 118.576 17.74C118.576 18.216 118.247 18.58 117.589 18.832C116.931 19.084 116.196 19.21 115.384 19.21C114.068 19.21 112.892 18.776 111.856 17.908C110.834 17.04 110.323 15.787 110.323 14.149C110.323 12.427 110.813 11.111 111.793 10.201C112.787 9.277 113.956 8.815 115.3 8.815C116.378 8.815 117.246 9.109 117.904 9.697C118.576 10.285 118.912 10.985 118.912 11.797C118.912 12.455 118.786 13.001 118.534 13.435C118.296 13.855 117.939 14.163 117.463 14.359C116.987 14.555 116.504 14.688 116.014 14.758C115.524 14.828 114.922 14.863 114.208 14.863ZM115.111 10.348C114.453 10.348 113.893 10.6 113.431 11.104C112.969 11.608 112.696 12.406 112.612 13.498C113.508 13.498 114.166 13.477 114.586 13.435C115.944 13.267 116.623 12.735 116.623 11.839C116.623 11.433 116.476 11.083 116.182 10.789C115.902 10.495 115.545 10.348 115.111 10.348ZM124.401 14.863C124.023 14.863 123.512 14.849 122.868 14.821C123.008 15.815 123.323 16.543 123.813 17.005C124.317 17.467 124.933 17.698 125.661 17.698C126.039 17.698 126.431 17.6 126.837 17.404C127.243 17.208 127.544 16.928 127.74 16.564C128.426 16.928 128.769 17.32 128.769 17.74C128.769 18.216 128.44 18.58 127.782 18.832C127.124 19.084 126.389 19.21 125.577 19.21C124.261 19.21 123.085 18.776 122.049 17.908C121.027 17.04 120.516 15.787 120.516 14.149C120.516 12.427 121.006 11.111 121.986 10.201C122.98 9.277 124.149 8.815 125.493 8.815C126.571 8.815 127.439 9.109 128.097 9.697C128.769 10.285 129.105 10.985 129.105 11.797C129.105 12.455 128.979 13.001 128.727 13.435C128.489 13.855 128.132 14.163 127.656 14.359C127.18 14.555 126.697 14.688 126.207 14.758C125.717 14.828 125.115 14.863 124.401 14.863ZM125.304 10.348C124.646 10.348 124.086 10.6 123.624 11.104C123.162 11.608 122.889 12.406 122.805 13.498C123.701 13.498 124.359 13.477 124.779 13.435C126.137 13.267 126.816 12.735 126.816 11.839C126.816 11.433 126.669 11.083 126.375 10.789C126.095 10.495 125.738 10.348 125.304 10.348ZM132.073 8.962C132.577 8.962 132.934 9.053 133.144 9.235C133.368 9.417 133.48 9.704 133.48 10.096V10.348C134.292 9.326 135.083 8.815 135.853 8.815C136.665 8.815 137.071 9.109 137.071 9.697C137.071 10.089 136.819 10.6 136.315 11.23C136.021 10.978 135.692 10.852 135.328 10.852C134.614 10.852 133.97 11.237 133.396 12.007C133.354 12.903 133.333 13.813 133.333 14.737C133.333 16.571 133.522 17.929 133.9 18.811C133.522 18.993 133.109 19.084 132.661 19.084C132.059 19.084 131.653 18.951 131.443 18.685C131.233 18.419 131.128 17.992 131.128 17.404C131.128 17.236 131.135 16.76 131.149 15.976C131.163 15.192 131.17 14.576 131.17 14.128C131.17 11.79 131.107 10.103 130.981 9.067C131.387 8.997 131.751 8.962 132.073 8.962Z" fill="black"/>
</svg>
